<svg width="178" height="50" viewBox="0 0 178 50" fill="none" xmlns="http://www.w3.org/2000/svg">
<g filter="url(#filter0_i_17_430)">
<path fill-rule="evenodd" clip-rule="evenodd" d="M26.2015 37.7723C26.8637 37.11 26.8639 36.0364 26.2017 35.3741C25.5395 34.7119 24.4655 34.7119 23.8033 35.374C23.141 36.0364 23.1413 37.11 23.8035 37.7723C24.4658 38.4347 25.5395 38.4346 26.2015 37.7723Z" fill="url(#paint0_radial_17_430)"/>
<path fill-rule="evenodd" clip-rule="evenodd" d="M15.4316 21.6919C16.3682 21.6919 17.1272 20.9328 17.1272 19.996C17.1272 19.0594 16.3682 18.3001 15.4316 18.3001C14.4949 18.3001 13.7357 19.0594 13.7357 19.996C13.7357 20.9328 14.4949 21.6919 15.4316 21.6919Z" fill="url(#paint1_radial_17_430)"/>
<path fill-rule="evenodd" clip-rule="evenodd" d="M25.0023 45.2534C23.6916 45.2534 22.629 46.3158 22.629 47.6266C22.629 48.9374 23.6916 50 25.0023 50C26.313 50 27.3757 48.9374 27.3757 47.6266C27.3757 46.3158 26.313 45.2534 25.0023 45.2534Z" fill="url(#paint2_radial_17_430)"/>
<path fill-rule="evenodd" clip-rule="evenodd" d="M34.5737 11.3159C35.8843 11.3159 36.9468 10.2534 36.9468 8.94259C36.9468 7.63164 35.8843 6.56917 34.5737 6.56917C33.263 6.56949 32.2002 7.63195 32.2002 8.94259C32.2002 10.2536 33.263 11.3161 34.5737 11.3159Z" fill="url(#paint3_radial_17_430)"/>
<path fill-rule="evenodd" clip-rule="evenodd" d="M22.7367 5.96473C24.3531 7.74562 25.4006 11.6516 23.8039 13.2482C23.8039 13.2482 23.8039 13.2483 23.8037 13.2483C23.47 13.582 23.3049 14.0202 23.3076 14.4574C23.3056 14.894 23.4708 15.3311 23.8039 15.6642C25.4486 17.309 24.2876 21.4047 22.589 23.1034C21.2561 24.4365 21.2561 26.5977 22.589 27.9308C23.9222 29.2639 26.0836 29.264 27.4164 27.9308C28.7496 26.5977 28.7496 24.4362 27.4164 23.1034C25.7181 21.4049 24.5573 17.3099 26.201 15.6648C26.2013 15.6645 26.2015 15.6644 26.2019 15.6642C26.5356 15.3304 26.7006 14.8922 26.6981 14.455C26.7001 14.0183 26.5346 13.5814 26.2019 13.2482C24.6052 11.6514 25.6526 7.7454 27.2691 5.96454C27.9726 5.33912 28.4162 4.4279 28.4162 3.41291C28.4162 1.52756 26.8879 -0.000747814 25.0028 -0.000747979C23.1174 -0.000748144 21.5892 1.52756 21.5892 3.41291C21.5892 4.428 22.0332 5.33944 22.7367 5.96473Z" fill="url(#paint4_radial_17_430)"/>
<path fill-rule="evenodd" clip-rule="evenodd" d="M7.05851 26.7265C7.72073 26.0643 7.72073 24.9907 7.05851 24.3283C6.39619 23.6661 5.32267 23.666 4.66035 24.3283C3.99811 24.9907 3.99811 26.0643 4.66035 26.7265C5.54246 27.6086 6.22072 32.8614 4.18109 34.901C3.25434 35.8279 3.25434 37.3305 4.18141 38.2576C5.10804 39.1843 6.6106 39.1843 7.53755 38.2576C8.46462 37.3305 8.46462 35.8279 7.53755 34.901C5.49794 32.8614 6.17627 27.6086 7.05851 26.7265Z" fill="url(#paint5_radial_17_430)"/>
<path fill-rule="evenodd" clip-rule="evenodd" d="M17.1096 32.7294C18.0363 31.8027 18.0363 30.2999 17.1095 29.3729C16.1827 28.4462 14.6801 28.4462 13.7532 29.3729C12.8262 30.2999 12.8262 31.8027 13.7532 32.7294C15.7927 34.769 15.1145 40.0217 14.2322 40.9038C13.5699 41.5661 13.5699 42.6398 14.2322 43.3022C14.8945 43.9643 15.9681 43.9644 16.6303 43.3022C17.2927 42.6398 17.2927 41.5661 16.6303 40.9038C15.7484 40.0218 15.07 34.7701 17.1092 32.7301C17.1092 32.7297 17.1095 32.7296 17.1096 32.7294Z" fill="url(#paint6_radial_17_430)"/>
<path fill-rule="evenodd" clip-rule="evenodd" d="M42.4669 34.8991C42.1605 35.2054 41.9577 35.5749 41.8538 35.9654L41.852 35.9622C41.1055 38.7484 36.2174 40.7873 35.0125 40.4644L35.0139 40.467C34.8735 40.4293 34.7262 40.4073 34.574 40.4073C33.6373 40.4073 32.878 41.1665 32.878 42.1029C32.878 43.0395 33.6376 43.7988 34.574 43.7988C35.3593 43.7988 36.0179 43.2643 36.2107 42.54L36.2115 42.5412C36.5343 41.3364 40.7434 38.123 43.5295 38.8687C43.5297 38.8688 43.5302 38.8689 43.5305 38.8691L43.5295 38.8675C44.3216 39.0796 45.2016 38.8771 45.8234 38.2556C46.7503 37.3286 46.7503 35.8259 45.8234 34.8991C43.7838 32.8595 44.4621 27.6067 45.3443 26.7246L45.3436 26.7246C45.3439 26.7245 45.3441 26.7242 45.3443 26.7241C46.0066 26.0618 46.0066 24.9882 45.3443 24.3259C44.4621 23.4437 43.7841 18.1922 45.8229 16.1521C45.8232 16.1517 45.8234 16.1516 45.8237 16.1514C46.7503 15.2246 46.7503 13.7218 45.8234 12.795C44.8966 11.8682 43.3939 11.8682 42.4671 12.795C41.5402 13.7218 41.5402 15.2246 42.4669 16.1514C44.5065 18.191 43.8282 23.4436 42.9462 24.3259C42.2839 24.9882 42.2839 26.0618 42.9462 26.7241C42.9462 26.7242 42.9465 26.7245 42.9467 26.7246L42.9462 26.7246C43.8282 27.6066 44.5065 32.8585 42.4676 34.8983C42.4674 34.8986 42.4671 34.8988 42.4669 34.8991Z" fill="url(#paint7_radial_17_430)"/>
<path fill-rule="evenodd" clip-rule="evenodd" d="M32.8959 29.3712C31.9692 30.2981 31.9692 31.8008 32.8959 32.7277C33.8229 33.6546 35.3256 33.6545 36.2524 32.7277C37.1793 31.8007 37.1793 30.2981 36.2524 29.3712C34.3881 27.5069 34.7291 23.2 36.2519 21.6762C36.2521 21.6759 36.2524 21.6757 36.2526 21.6755C37.1793 20.7487 37.1793 19.2461 36.2524 18.3191C35.3256 17.3922 33.8229 17.3922 32.8961 18.3191C31.9692 19.2461 31.9692 20.7487 32.8959 21.6755C34.4192 23.1987 34.7607 27.5066 32.8959 29.3712Z" fill="url(#paint8_radial_17_430)"/>
<path fill-rule="evenodd" clip-rule="evenodd" d="M5.24495 16.7642C6.51119 17.1035 7.81263 16.3521 8.15179 15.0861C8.70934 13.0053 12.2694 10.5556 14.8163 11.2382C16.0825 11.5772 17.384 10.8257 17.7232 9.5598C18.0624 8.29357 17.311 6.99225 16.0448 6.65328C14.7788 6.31399 13.4776 7.06506 13.1382 8.3314C12.456 10.8774 8.55751 12.7352 6.47589 12.1798C6.47518 12.1796 6.47416 12.1793 6.47346 12.1791C5.20744 11.84 3.9061 12.5915 3.56683 13.8577C3.22754 15.1233 3.97893 16.425 5.24495 16.7642Z" fill="url(#paint9_radial_17_430)"/>
</g>
<path d="M73.68 21.32C74.7133 21.32 75.6867 21.1733 76.6 20.88C77.5133 20.58 78.2833 20.2067 78.91 19.76L77.51 17.01C77.0633 17.3633 76.5167 17.64 75.87 17.84C75.23 18.04 74.5633 18.14 73.87 18.14C72.7833 18.14 71.8067 17.9033 70.94 17.43C70.0733 16.9567 69.39 16.3133 68.89 15.5C68.39 14.6867 68.14 13.7733 68.14 12.76C68.14 11.7467 68.39 10.8333 68.89 10.02C69.39 9.20667 70.0733 8.56333 70.94 8.09C71.8067 7.61667 72.7833 7.38 73.87 7.38C74.5633 7.38 75.23 7.48 75.87 7.68C76.5167 7.88 77.0633 8.15667 77.51 8.51L78.91 5.76C78.2633 5.29333 77.48 4.91667 76.56 4.63C75.64 4.34333 74.6733 4.2 73.66 4.2C72.42 4.2 71.2533 4.42 70.16 4.86C69.0733 5.3 68.1133 5.91333 67.28 6.7C66.4533 7.48 65.8033 8.39 65.33 9.43C64.8633 10.4633 64.63 11.5767 64.63 12.77C64.63 13.9567 64.8633 15.0667 65.33 16.1C65.8033 17.1333 66.4533 18.0433 67.28 18.83C68.1133 19.61 69.0767 20.22 70.17 20.66C71.2633 21.1 72.4333 21.32 73.68 21.32ZM87.3141 21.32C88.4474 21.32 89.4674 21.09 90.3741 20.63C91.2807 20.1633 91.9974 19.5233 92.5241 18.71C93.0574 17.89 93.3241 16.9467 93.3241 15.88C93.3241 14.8133 93.0574 13.8733 92.5241 13.06C91.9974 12.24 91.2807 11.6 90.3741 11.14C89.4674 10.6733 88.4474 10.44 87.3141 10.44C86.1874 10.44 85.1674 10.6733 84.2541 11.14C83.3474 11.6 82.6274 12.24 82.0941 13.06C81.5674 13.8733 81.3041 14.8133 81.3041 15.88C81.3041 16.9467 81.5674 17.89 82.0941 18.71C82.6274 19.5233 83.3474 20.1633 84.2541 20.63C85.1674 21.09 86.1874 21.32 87.3141 21.32ZM87.3141 18.7C86.7941 18.7 86.3207 18.58 85.8941 18.34C85.4741 18.1 85.1407 17.77 84.8941 17.35C84.6474 16.9233 84.5241 16.4333 84.5241 15.88C84.5241 15.3267 84.6474 14.84 84.8941 14.42C85.1407 13.9933 85.4741 13.66 85.8941 13.42C86.3207 13.18 86.7941 13.06 87.3141 13.06C87.8407 13.06 88.3141 13.18 88.7341 13.42C89.1607 13.66 89.4974 13.9933 89.7441 14.42C89.9974 14.84 90.1241 15.3267 90.1241 15.88C90.1241 16.4333 89.9974 16.9233 89.7441 17.35C89.4974 17.77 89.1607 18.1 88.7341 18.34C88.3141 18.58 87.8407 18.7 87.3141 18.7ZM101.393 21.32C102.107 21.32 102.773 21.1733 103.393 20.88C104.013 20.5867 104.55 20.1767 105.003 19.65V21H108.073V3.8H105.003V12.01C104.597 11.5167 104.083 11.1333 103.463 10.86C102.85 10.58 102.187 10.44 101.473 10.44C100.487 10.44 99.6066 10.6767 98.8333 11.15C98.06 11.6233 97.4533 12.27 97.0133 13.09C96.5733 13.91 96.3533 14.84 96.3533 15.88C96.3533 16.94 96.58 17.88 97.0333 18.7C97.4866 19.52 98.0933 20.1633 98.8533 20.63C99.62 21.09 100.467 21.32 101.393 21.32ZM102.313 18.71C101.513 18.71 100.857 18.4467 100.343 17.92C99.8366 17.3867 99.5833 16.7133 99.5833 15.9C99.5833 15.0733 99.8433 14.3933 100.363 13.86C100.89 13.32 101.547 13.05 102.333 13.05C103.12 13.05 103.773 13.32 104.293 13.86C104.813 14.3933 105.073 15.0733 105.073 15.9C105.073 16.7133 104.813 17.3867 104.293 17.92C103.78 18.4467 103.12 18.71 102.313 18.71ZM117.716 21.32C118.796 21.32 119.776 21.0867 120.656 20.62C121.536 20.1533 122.216 19.5067 122.696 18.68L120.486 17.57C120.106 18.0233 119.709 18.3533 119.296 18.56C118.889 18.7667 118.419 18.87 117.886 18.87C117.032 18.87 116.346 18.6333 115.826 18.16C115.306 17.6867 115.046 17.06 115.046 16.28H122.896C122.916 16.1067 122.926 15.99 122.926 15.93C122.932 15.8633 122.936 15.7867 122.936 15.7C122.936 14.6533 122.709 13.7367 122.256 12.95C121.809 12.1633 121.182 11.55 120.376 11.11C119.576 10.6633 118.642 10.44 117.576 10.44C116.509 10.44 115.546 10.6833 114.686 11.17C113.832 11.65 113.152 12.3 112.646 13.12C112.139 13.94 111.886 14.86 111.886 15.88C111.886 16.9133 112.139 17.84 112.646 18.66C113.159 19.48 113.856 20.13 114.736 20.61C115.616 21.0833 116.609 21.32 117.716 21.32ZM115.156 14.58C115.222 13.9867 115.469 13.52 115.896 13.18C116.322 12.84 116.869 12.67 117.536 12.67C118.169 12.67 118.696 12.84 119.116 13.18C119.542 13.52 119.809 13.9867 119.916 14.58H115.156ZM73.68 41.32C74.7133 41.32 75.6867 41.1733 76.6 40.88C77.5133 40.58 78.2833 40.2067 78.91 39.76L77.51 37.01C77.0633 37.3633 76.5167 37.64 75.87 37.84C75.23 38.04 74.5633 38.14 73.87 38.14C72.7833 38.14 71.8067 37.9033 70.94 37.43C70.0733 36.9567 69.39 36.3133 68.89 35.5C68.39 34.6867 68.14 33.7733 68.14 32.76C68.14 31.7467 68.39 30.8333 68.89 30.02C69.39 29.2067 70.0733 28.5633 70.94 28.09C71.8067 27.6167 72.7833 27.38 73.87 27.38C74.5633 27.38 75.23 27.48 75.87 27.68C76.5167 27.88 77.0633 28.1567 77.51 28.51L78.91 25.76C78.2633 25.2933 77.48 24.9167 76.56 24.63C75.64 24.3433 74.6733 24.2 73.66 24.2C72.42 24.2 71.2533 24.42 70.16 24.86C69.0733 25.3 68.1133 25.9133 67.28 26.7C66.4533 27.48 65.8033 28.39 65.33 29.43C64.8633 30.4633 64.63 31.5767 64.63 32.77C64.63 33.9567 64.8633 35.0667 65.33 36.1C65.8033 37.1333 66.4533 38.0433 67.28 38.83C68.1133 39.61 69.0767 40.22 70.17 40.66C71.2633 41.1 72.4333 41.32 73.68 41.32ZM87.3141 41.32C88.4474 41.32 89.4674 41.09 90.3741 40.63C91.2807 40.1633 91.9974 39.5233 92.5241 38.71C93.0574 37.89 93.3241 36.9467 93.3241 35.88C93.3241 34.8133 93.0574 33.8733 92.5241 33.06C91.9974 32.24 91.2807 31.6 90.3741 31.14C89.4674 30.6733 88.4474 30.44 87.3141 30.44C86.1874 30.44 85.1674 30.6733 84.2541 31.14C83.3474 31.6 82.6274 32.24 82.0941 33.06C81.5674 33.8733 81.3041 34.8133 81.3041 35.88C81.3041 36.9467 81.5674 37.89 82.0941 38.71C82.6274 39.5233 83.3474 40.1633 84.2541 40.63C85.1674 41.09 86.1874 41.32 87.3141 41.32ZM87.3141 38.7C86.7941 38.7 86.3207 38.58 85.8941 38.34C85.4741 38.1 85.1407 37.77 84.8941 37.35C84.6474 36.9233 84.5241 36.4333 84.5241 35.88C84.5241 35.3267 84.6474 34.84 84.8941 34.42C85.1407 33.9933 85.4741 33.66 85.8941 33.42C86.3207 33.18 86.7941 33.06 87.3141 33.06C87.8407 33.06 88.3141 33.18 88.7341 33.42C89.1607 33.66 89.4974 33.9933 89.7441 34.42C89.9974 34.84 90.1241 35.3267 90.1241 35.88C90.1241 36.4333 89.9974 36.9233 89.7441 37.35C89.4974 37.77 89.1607 38.1 88.7341 38.34C88.3141 38.58 87.8407 38.7 87.3141 38.7ZM101.393 41.32C102.107 41.32 102.773 41.1733 103.393 40.88C104.013 40.5867 104.55 40.1767 105.003 39.65V41H108.073V23.8H105.003V32.01C104.597 31.5167 104.083 31.1333 103.463 30.86C102.85 30.58 102.187 30.44 101.473 30.44C100.487 30.44 99.6066 30.6767 98.8333 31.15C98.06 31.6233 97.4533 32.27 97.0133 33.09C96.5733 33.91 96.3533 34.84 96.3533 35.88C96.3533 36.94 96.58 37.88 97.0333 38.7C97.4866 39.52 98.0933 40.1633 98.8533 40.63C99.62 41.09 100.467 41.32 101.393 41.32ZM102.313 38.71C101.513 38.71 100.857 38.4467 100.343 37.92C99.8366 37.3867 99.5833 36.7133 99.5833 35.9C99.5833 35.0733 99.8433 34.3933 100.363 33.86C100.89 33.32 101.547 33.05 102.333 33.05C103.12 33.05 103.773 33.32 104.293 33.86C104.813 34.3933 105.073 35.0733 105.073 35.9C105.073 36.7133 104.813 37.3867 104.293 37.92C103.78 38.4467 103.12 38.71 102.313 38.71ZM117.716 41.32C118.796 41.32 119.776 41.0867 120.656 40.62C121.536 40.1533 122.216 39.5067 122.696 38.68L120.486 37.57C120.106 38.0233 119.709 38.3533 119.296 38.56C118.889 38.7667 118.419 38.87 117.886 38.87C117.032 38.87 116.346 38.6333 115.826 38.16C115.306 37.6867 115.046 37.06 115.046 36.28H122.896C122.916 36.1067 122.926 35.99 122.926 35.93C122.932 35.8633 122.936 35.7867 122.936 35.7C122.936 34.6533 122.709 33.7367 122.256 32.95C121.809 32.1633 121.182 31.55 120.376 31.11C119.576 30.6633 118.642 30.44 117.576 30.44C116.509 30.44 115.546 30.6833 114.686 31.17C113.832 31.65 113.152 32.3 112.646 33.12C112.139 33.94 111.886 34.86 111.886 35.88C111.886 36.9133 112.139 37.84 112.646 38.66C113.159 39.48 113.856 40.13 114.736 40.61C115.616 41.0833 116.609 41.32 117.716 41.32ZM115.156 34.58C115.222 33.9867 115.469 33.52 115.896 33.18C116.322 32.84 116.869 32.67 117.536 32.67C118.169 32.67 118.696 32.84 119.116 33.18C119.542 33.52 119.809 33.9867 119.916 34.58H115.156Z" fill="black"/>
<defs>
<filter id="filter0_i_17_430" x="0" y="-0.000732422" width="50" height="50.0007" filterUnits="userSpaceOnUse" color-interpolation-filters="sRGB">
<feFlood flood-opacity="0" result="BackgroundImageFix"/>
<feBlend mode="normal" in="SourceGraphic" in2="BackgroundImageFix" result="shape"/>
<feColorMatrix in="SourceAlpha" type="matrix" values="0 0 0 0 0 0 0 0 0 0 0 0 0 0 0 0 0 0 127 0" result="hardAlpha"/>
<feOffset/>
<feGaussianBlur stdDeviation="0.497222"/>
<feComposite in2="hardAlpha" operator="arithmetic" k2="-1" k3="1"/>
<feColorMatrix type="matrix" values="0 0 0 0 1 0 0 0 0 1 0 0 0 0 1 0 0 0 0.2 0"/>
<feBlend mode="normal" in2="shape" result="effect1_innerShadow_17_430"/>
</filter>
<radialGradient id="paint0_radial_17_430" cx="0" cy="0" r="1" gradientUnits="userSpaceOnUse" gradientTransform="translate(26.3779 37.8489) rotate(-135.946) scale(4.27339 7.71679)">
<stop stop-color="#F4D52B"/>
<stop offset="1" stop-color="#FFD90B"/>
</radialGradient>
<radialGradient id="paint1_radial_17_430" cx="0" cy="0" r="1" gradientUnits="userSpaceOnUse" gradientTransform="translate(16.8069 21.2717) rotate(-135.944) scale(4.27343 7.71687)">
<stop stop-color="#F4D52B"/>
<stop offset="1" stop-color="#FFD90B"/>
</radialGradient>
<radialGradient id="paint2_radial_17_430" cx="0" cy="0" r="1" gradientUnits="userSpaceOnUse" gradientTransform="translate(26.9274 49.4119) rotate(-135.947) scale(5.98083 10.8)">
<stop stop-color="#F4D52B"/>
<stop offset="1" stop-color="#FFD90B"/>
</radialGradient>
<radialGradient id="paint3_radial_17_430" cx="0" cy="0" r="1" gradientUnits="userSpaceOnUse" gradientTransform="translate(36.4985 10.7278) rotate(-135.946) scale(5.98083 10.8)">
<stop stop-color="#F4D52B"/>
<stop offset="1" stop-color="#FFD90B"/>
</radialGradient>
<radialGradient id="paint4_radial_17_430" cx="0" cy="0" r="1" gradientUnits="userSpaceOnUse" gradientTransform="translate(27.7715 25.3464) rotate(-103.707) scale(26.0902 21.7038)">
<stop stop-color="#F4D52B"/>
<stop offset="1" stop-color="#FFD90B"/>
</radialGradient>
<radialGradient id="paint5_radial_17_430" cx="0" cy="0" r="1" gradientUnits="userSpaceOnUse" gradientTransform="translate(7.78454 37.0793) rotate(-107.977) scale(13.9276 14.7744)">
<stop stop-color="#F4D52B"/>
<stop offset="1" stop-color="#FFD90B"/>
</radialGradient>
<radialGradient id="paint6_radial_17_430" cx="0" cy="0" r="1" gradientUnits="userSpaceOnUse" gradientTransform="translate(17.3563 41.9255) rotate(-107.976) scale(13.9275 14.7741)">
<stop stop-color="#F4D52B"/>
<stop offset="1" stop-color="#FFD90B"/>
</radialGradient>
<radialGradient id="paint7_radial_17_430" cx="0" cy="0" r="1" gradientUnits="userSpaceOnUse" gradientTransform="translate(45.2303 39.8717) rotate(-113.979) scale(30.3949 40.7833)">
<stop stop-color="#F4D52B"/>
<stop offset="1" stop-color="#FFD90B"/>
</radialGradient>
<radialGradient id="paint8_radial_17_430" cx="0" cy="0" r="1" gradientUnits="userSpaceOnUse" gradientTransform="translate(36.4993 31.4655) rotate(-107.252) scale(14.4937 14.8338)">
<stop stop-color="#F4D52B"/>
<stop offset="1" stop-color="#FFD90B"/>
</radialGradient>
<radialGradient id="paint9_radial_17_430" cx="0" cy="0" r="1" gradientUnits="userSpaceOnUse" gradientTransform="translate(16.4523 15.5729) rotate(-145.233) scale(15.7848 26.7191)">
<stop stop-color="#F4D52B"/>
<stop offset="1" stop-color="#FFD90B"/>
</radialGradient>
</defs>
</svg>
